<svg width="35" height="36" viewBox="0 0 35 36" fill="none" xmlns="http://www.w3.org/2000/svg">
<path d="M12.505 25.2806H29.6C30.1706 25.2806 30.6687 24.8119 30.6687 24.1819C30.6687 23.5519 30.1706 23.0831 29.6 23.0831H12.7537C11.9187 23.0831 11.4062 22.4969 11.2743 21.6037L11.04 20.0656H29.6287C31.7675 20.0656 32.8662 18.7469 33.1737 16.6525L34.3456 8.9031C34.3767 8.71908 34.3963 8.53331 34.4043 8.34685C34.4043 7.64373 33.8768 7.15998 33.0712 7.15998H9.15058L8.87183 5.29998C8.72558 4.17185 8.31558 3.59998 6.82183 3.59998H1.67933C1.09371 3.59998 0.595581 4.11373 0.595581 4.69998C0.595581 5.29998 1.09371 5.8131 1.67996 5.8131H6.63058L8.97433 21.8969C9.28246 23.9769 10.3806 25.2806 12.505 25.2806ZM31.9137 9.37185L30.875 16.3887C30.7575 17.2969 30.2743 17.8537 29.41 17.8537L10.7187 17.8681L9.47308 9.37185H31.9137ZM13.6625 32.4C13.9748 32.4026 14.2846 32.3429 14.5737 32.2246C14.8627 32.1062 15.1254 31.9315 15.3463 31.7107C15.5671 31.4898 15.7419 31.2271 15.8602 30.9381C15.9785 30.649 16.0382 30.3392 16.0356 30.0269C16.0369 29.7148 15.9764 29.4057 15.8576 29.1171C15.7388 28.8286 15.5641 28.5665 15.3435 28.3458C15.1228 28.1252 14.8607 27.9505 14.5722 27.8317C14.2837 27.7129 13.9745 27.6524 13.6625 27.6537C12.33 27.6537 11.275 28.7087 11.275 30.0269C11.275 31.36 12.33 32.4 13.6625 32.4ZM27.3587 32.4C28.6918 32.4 29.7462 31.36 29.7462 30.0269C29.7462 28.7081 28.6918 27.6537 27.3587 27.6537C26.0406 27.6537 24.9712 28.7087 24.9712 30.0269C24.9712 31.36 26.0406 32.4 27.3587 32.4Z" fill="white"/>
</svg>
