<svg width="20" height="23" viewBox="0 0 20 23" fill="none" xmlns="http://www.w3.org/2000/svg">
<path d="M14 1.75V3H19.25C19.4489 3 19.6397 3.07902 19.7803 3.21967C19.921 3.36032 20 3.55109 20 3.75C20 3.94891 19.921 4.13968 19.7803 4.28033C19.6397 4.42098 19.4489 4.5 19.25 4.5H0.75C0.551088 4.5 0.360322 4.42098 0.21967 4.28033C0.0790175 4.13968 0 3.94891 0 3.75C0 3.55109 0.0790175 3.36032 0.21967 3.21967C0.360322 3.07902 0.551088 3 0.75 3H6V1.75C6 0.784 6.784 0 7.75 0H12.25C13.216 0 14 0.784 14 1.75ZM7.5 1.75V3H12.5V1.75C12.5 1.6837 12.4737 1.62011 12.4268 1.57322C12.3799 1.52634 12.3163 1.5 12.25 1.5H7.75C7.6837 1.5 7.62011 1.52634 7.57322 1.57322C7.52634 1.62011 7.5 1.6837 7.5 1.75ZM2.997 6.178C2.98845 6.07926 2.96041 5.9832 2.91452 5.89536C2.86862 5.80752 2.80576 5.72965 2.72959 5.66625C2.65341 5.60284 2.56542 5.55517 2.47071 5.52598C2.376 5.49678 2.27644 5.48665 2.17779 5.49617C2.07914 5.50568 1.98336 5.53465 1.89597 5.58141C1.80858 5.62817 1.73133 5.69178 1.66868 5.76857C1.60602 5.84536 1.55921 5.93381 1.53095 6.0288C1.50268 6.12379 1.49352 6.22345 1.504 6.322L2.916 20.92C2.95823 21.3527 3.16001 21.7542 3.48203 22.0462C3.80405 22.3383 4.22325 22.5001 4.658 22.5H15.342C15.7769 22.5 16.1962 22.3382 16.5183 22.0459C16.8403 21.7536 17.042 21.3519 17.084 20.919L18.497 6.322C18.5161 6.12388 18.4557 5.9263 18.3291 5.7727C18.2025 5.61911 18.0201 5.5221 17.822 5.503C17.6239 5.4839 17.4263 5.54429 17.2727 5.67088C17.1191 5.79747 17.0221 5.97988 17.003 6.178L15.591 20.774C15.585 20.8359 15.5562 20.8933 15.5102 20.9351C15.4641 20.9769 15.4042 21 15.342 21H4.658C4.59582 21 4.53587 20.9769 4.48983 20.9351C4.44379 20.8933 4.41497 20.8359 4.409 20.774L2.997 6.178Z" fill="#E01400"/>
</svg>
