<svg width="12" height="12" viewBox="0 0 12 12" fill="none" xmlns="http://www.w3.org/2000/svg">
<path d="M4.57649 2.704C5.20999 1.568 5.52649 1 5.99999 1C6.47349 1 6.78999 1.568 7.42349 2.704L7.58749 2.998C7.76749 3.321 7.85749 3.4825 7.99749 3.589C8.13749 3.6955 8.31249 3.735 8.66249 3.814L8.98049 3.886C10.2105 4.1645 10.825 4.3035 10.9715 4.774C11.1175 5.244 10.6985 5.7345 9.85999 6.715L9.64299 6.9685C9.40499 7.247 9.28549 7.3865 9.23199 7.5585C9.17849 7.731 9.19649 7.917 9.23249 8.2885L9.26549 8.627C9.39199 9.9355 9.45549 10.5895 9.07249 10.88C8.68949 11.171 8.11349 10.9055 6.96249 10.3755L6.66399 10.2385C6.33699 10.0875 6.17349 10.0125 5.99999 10.0125C5.82649 10.0125 5.66299 10.0875 5.33599 10.2385L5.03799 10.3755C3.8865 10.9055 3.3105 11.1705 2.928 10.8805C2.5445 10.5895 2.608 9.9355 2.7345 8.627L2.7675 8.289C2.8035 7.917 2.8215 7.731 2.7675 7.559C2.7145 7.3865 2.595 7.247 2.357 6.969L2.14 6.715C1.3015 5.735 0.882495 5.2445 1.0285 4.774C1.175 4.3035 1.79 4.164 3.02 3.886L3.338 3.814C3.6875 3.735 3.862 3.6955 4.0025 3.589C4.1425 3.4825 4.2325 3.321 4.41249 2.998L4.57649 2.704Z" fill="#F5C451"/>
</svg>
