<svg width="21" height="20" viewBox="0 0 21 20" fill="none" xmlns="http://www.w3.org/2000/svg">
<path d="M14.3908 7.97605L14.7501 9.34385L6.99922 11.38L6.6399 10.0122L14.3908 7.97605ZM8.2995 0.559347L19.8137 7.28254C20.6125 7.74896 20.879 8.76341 20.4126 9.56221L18.7318 12.4408C18.35 12.2179 17.8954 12.1557 17.4679 12.2681C17.0404 12.3804 16.675 12.6579 16.4521 13.0396C16.2292 13.4213 16.1671 13.876 16.2794 14.3035C16.3917 14.731 16.6692 15.0964 17.051 15.3193L15.3702 18.1978C14.9038 18.9966 13.8893 19.2631 13.0905 18.7967L1.57631 12.0735C1.19459 11.8506 0.917052 11.4852 0.804741 11.0577C0.69243 10.6302 0.754551 10.1756 0.977439 9.79386L2.65824 6.91531C3.45703 7.38174 4.47149 7.11524 4.93791 6.31644C5.1608 5.93472 5.22292 5.4801 5.11061 5.05257C4.9983 4.62505 4.72075 4.25966 4.33903 4.03677L6.01983 1.15822C6.24272 0.776503 6.60811 0.498959 7.03564 0.386649C7.46316 0.274338 7.91778 0.336459 8.2995 0.559347ZM7.4591 1.99862L6.3918 3.8265C6.68187 4.334 6.83316 4.90895 6.83046 5.4935C6.82775 6.07805 6.67114 6.65158 6.37639 7.15638C6.08163 7.66118 5.65913 8.07944 5.15138 8.3691C4.64364 8.65875 4.06856 8.80957 3.48402 8.80638L2.41671 10.6343L13.9309 17.3574L14.9982 15.5296C14.7081 15.0221 14.5568 14.4471 14.5595 13.8626C14.5623 13.278 14.7189 12.7045 15.0136 12.1997C15.3084 11.6949 15.7309 11.2766 16.2386 10.987C16.7464 10.6973 17.3214 10.5465 17.906 10.5497L18.9733 8.72181L7.4591 1.99862ZM10.5767 5.74899C11.174 6.09776 11.3746 6.86145 11.0259 7.45874C10.6771 8.05604 9.91341 8.25667 9.31611 7.9079C8.71881 7.55913 8.51819 6.79544 8.86695 6.19815C9.21572 5.60085 9.97941 5.40022 10.5767 5.74899ZM12.0739 11.4482C12.6712 11.7969 12.8718 12.5606 12.523 13.1579C12.1743 13.7552 11.4106 13.9558 10.8133 13.6071C10.216 13.2583 10.0154 12.4946 10.3641 11.8973C10.7129 11.3 11.4766 11.0994 12.0739 11.4482Z" fill="black"/>
</svg>
